<svg width="61" height="38" viewBox="0 0 61 38" fill="none" xmlns="http://www.w3.org/2000/svg">
<g clip-path="url(#clip0_608_3292)">
<path d="M38.6373 4.32593H22.3086V33.6741H38.6373V4.32593Z" fill="#FF5F00"/>
<path d="M23.3456 19C23.3456 13.2963 25.9893 7.85188 30.4473 4.32595C22.3607 -2.05183 10.5937 -0.651829 4.21767 7.48891C-2.10648 15.5778 -0.706874 27.2963 7.43158 33.6741C14.2223 39.0148 23.7085 39.0148 30.4992 33.6741C25.9893 30.1482 23.3456 24.7037 23.3456 19Z" fill="#EB001B"/>
<path d="M60.6693 19C60.6693 29.3185 52.3235 37.6667 42.0079 37.6667C37.8091 37.6667 33.7657 36.2667 30.5 33.6741C38.5866 27.2963 39.9862 15.5778 33.6102 7.43706C32.6772 6.29632 31.6404 5.20743 30.5 4.32595C38.5866 -2.05183 50.3537 -0.651829 56.6778 7.48891C59.2697 10.7556 60.6693 14.8 60.6693 19Z" fill="#F79E1B"/>
</g>
<defs>
<clipPath id="clip0_608_3292">
<rect width="61" height="38" fill="white"/>
</clipPath>
</defs>
</svg>
