<svg width="16" height="17" viewBox="0 0 16 17" fill="none" xmlns="http://www.w3.org/2000/svg">
<path d="M8.6 1L8.6 0.4L7.4 0.4L7.4 1L8.6 1ZM7.57574 11.4243C7.81005 11.6586 8.18995 11.6586 8.42426 11.4243L12.2426 7.60589C12.477 7.37157 12.477 6.99167 12.2426 6.75736C12.0083 6.52304 11.6284 6.52304 11.3941 6.75736L8 10.1515L4.60589 6.75736C4.37157 6.52304 3.99167 6.52304 3.75736 6.75736C3.52304 6.99167 3.52304 7.37157 3.75736 7.60589L7.57574 11.4243ZM7.4 1L7.4 11L8.6 11L8.6 1L7.4 1Z" fill="white"/>
<path d="M1 11V14C1 15.1046 1.89543 16 3 16H13C14.1046 16 15 15.1046 15 14V11" stroke="white" stroke-width="1.2" stroke-linecap="round"/>
</svg>
