<svg width="20" height="19" viewBox="0 0 20 19" fill="none" xmlns="http://www.w3.org/2000/svg">
<path d="M12.1888 1.89712C13.1975 0.888459 14.8328 0.888459 15.8415 1.89712L17.6678 3.72347C18.6765 4.73213 18.6765 6.3675 17.6678 7.37616L8.43584 16.6082C8.04068 17.0033 7.528 17.2597 6.97477 17.3387L3.13944 17.8866C2.28715 18.0084 1.55661 17.2778 1.67836 16.4255L2.22627 12.5902C2.3053 12.037 2.56164 11.5243 2.9568 11.1291L12.1888 1.89712Z"/>
<path d="M10.3625 3.72347C10.3625 3.72347 10.3625 5.54982 12.1888 7.37616C14.0151 9.20251 15.8415 9.20251 15.8415 9.20251M3.13944 17.8866L6.97477 17.3387C7.528 17.2597 8.04068 17.0033 8.43584 16.6082L17.6678 7.37616C18.6765 6.3675 18.6765 4.73213 17.6678 3.72347L15.8415 1.89712C14.8328 0.888459 13.1975 0.888459 12.1888 1.89712L2.9568 11.1291C2.56164 11.5243 2.3053 12.037 2.22627 12.5902L1.67836 16.4255C1.55661 17.2778 2.28715 18.0084 3.13944 17.8866Z" stroke="white" stroke-width="1.52357" stroke-linecap="round"/>
</svg>
