<svg width="24" height="24" viewBox="0 0 24 24" fill="none" xmlns="http://www.w3.org/2000/svg">
<path fill-rule="evenodd" clip-rule="evenodd" d="M16.0026 0.333374H3.33594C1.67908 0.333374 0.335938 1.67652 0.335938 3.33338V20.6667C0.335938 22.3236 1.67908 23.6667 3.33594 23.6667H21.3359C20.0473 23.6667 19.0026 22.622 19.0026 21.3334V7.33337V3.33337C19.0026 1.67652 17.6595 0.333374 16.0026 0.333374ZM4.12695 6.16675C4.12695 5.6835 4.5187 5.29175 5.00195 5.29175H14.3353C14.8185 5.29175 15.2103 5.6835 15.2103 6.16675C15.2103 6.65 14.8185 7.04175 14.3353 7.04175H5.00195C4.5187 7.04175 4.12695 6.65 4.12695 6.16675ZM5.00195 11.125C4.5187 11.125 4.12695 11.5168 4.12695 12C4.12695 12.4832 4.5187 12.875 5.00195 12.875H14.3353C14.8185 12.875 15.2103 12.4832 15.2103 12C15.2103 11.5168 14.8185 11.125 14.3353 11.125H5.00195ZM4.12695 17.8334C4.12695 17.3501 4.5187 16.9584 5.00195 16.9584H9.66862C10.1519 16.9584 10.5436 17.3501 10.5436 17.8334C10.5436 18.3166 10.1519 18.7084 9.66862 18.7084H5.00195C4.5187 18.7084 4.12695 18.3166 4.12695 17.8334ZM23.6686 20.4584V9.66671C23.6686 8.37804 22.624 7.33337 21.3353 7.33337H20.752V20.4584C20.752 21.2638 21.4049 21.9167 22.2103 21.9167C23.0157 21.9167 23.6686 21.2638 23.6686 20.4584Z" fill="#ADADAD"/>
</svg>
