<svg width="19" height="19" viewBox="0 0 19 19" fill="none" xmlns="http://www.w3.org/2000/svg">
<path fill-rule="evenodd" clip-rule="evenodd" d="M1.32558 9.05814C1.32558 13.3287 4.78757 16.7907 9.05814 16.7907C13.3287 16.7907 16.7907 13.3287 16.7907 9.05814C16.7907 4.78757 13.3287 1.32558 9.05814 1.32558C4.78757 1.32558 1.32558 4.78757 1.32558 9.05814ZM9.05814 18.1163C4.05547 18.1163 0 14.0608 0 9.05814C0 4.05547 4.05547 0 9.05814 0C14.0608 0 18.1163 4.05547 18.1163 9.05814C18.1163 11.3209 17.2866 13.3899 15.9148 14.9775L18.8059 17.8685C19.0647 18.1274 19.0647 18.547 18.8059 18.8059C18.547 19.0647 18.1274 19.0647 17.8685 18.8059L14.9775 15.9148C13.3899 17.2866 11.3209 18.1163 9.05814 18.1163Z" fill="#141414"/>
</svg>
